<?xml version="1.0" encoding="UTF-8"?>
<svg id="Layer_1" data-name="Layer 1" xmlns="http://www.w3.org/2000/svg" viewBox="0 0 19.53 23.23">
  <defs>
    <style>
      .cls-1 {
        fill: #f8cb28;
      }

      .cls-1, .cls-2 {
        stroke-width: 0px;
      }

      .cls-2 {
        fill: #e67743;
      }
    </style>
  </defs>
  <g>
    <path class="cls-2" d="M13.25,12.13h0s0,0,0,0Z"/>
    <path class="cls-2" d="M8.72,13.61c.35-.09.69-.18,1.04-.27,0,0,0-.02,0-.03,0,0,0,.02,0,.03.55.14,1.1.28,1.66.42.01-.01.02-.03.03-.04-.1-.08-.19-.17-.29-.25,0,0-.02-.02-.03-.03-.01-.01-.03-.02-.04-.04-.14-.18-.29-.35-.46-.5-.08-.08-.15-.17-.23-.25,0,0,0,0,0,0,0-.02-.01-.03-.03-.03-.05-.06-.06-.13-.05-.21.03-.25.11-.5.1-.76,0,0,0-.02,0-.02.08-.2.08-.42.11-.63.02-.13.04-.26.06-.39.07,0,.11.04.15.08.46.29.91.59,1.37.88,0,0,0,.01.01.01,0,0,0,0,0,0,.02.02.05.03.07.05,0,0,0,0,0,0,.17.12.34.24.53.34,0,0,0,0,0,0,.03.02.06.04.09.06,0,0,.01,0,.01,0h-.01c.08.06.16.12.25.17.07.06.11,0,.15-.03,0,0,0,0,0,0,0,0,0,0,0,0,0,0,0,0,0,0,.01-.01.02-.02.03-.03,0,0,0,0,0,0,0,0,.02-.02.03-.03,0,0,0,0,0,0,.07-.06.06-.14.04-.22-.07-.25-.21-.45-.38-.64,0,0,0,0,0,0-.01-.02-.03-.03-.04-.05,0,0,0,0,0,0-.09-.12-.19-.23-.3-.33-.01-.01-.03-.03-.04-.04,0,0,0,0,0,0-.02-.02-.04-.04-.06-.06,0,0,0,0,0,0-.01,0-.02-.02-.03-.03,0,0,0,0,0,0-.03-.05-.07-.1-.13-.11,0,0,0,0,0,0-.02-.02-.04-.04-.06-.06,0,0,0,0,0,0,0,0-.02-.02-.03-.03,0,0,0,0,0,0-.01-.05-.05-.07-.09-.09,0,0,0,0,0,0-.01,0-.02-.02-.03-.03,0,0,0,0,0,0-.02-.01-.03-.03-.05-.04,0,0,0,0,0,0-.05-.07-.12-.12-.19-.17,0,0,0,0,0,0-.01,0-.02-.02-.03-.03,0,0,0,0,0,0-.02-.01-.03-.03-.05-.04,0,0,0,0,0,0-.05-.07-.12-.12-.19-.17,0,0,0,0,0,0-.08-.09-.17-.17-.27-.24-.18-.18-.37-.35-.57-.51,0,0,0-.01-.02-.01,0,0,0,0,0,0,0-.02-.01-.03-.03-.03-.03-.08,0-.15,0-.23.04-.35.05-.7.02-1.04-.03-.12-.03-.26-.05-.38-.05-.44-.18-.86-.37-1.25-.07-.16-.15-.32-.26-.46-.06-.11-.13-.21-.22-.3,0,0,0,0,0,0-.04-.05-.07-.17-.15-.03,0,0,0,0,0,0-.08.07-.14.16-.2.25-.58.87-.77,1.84-.72,2.87,0,.19.06.38.04.57-.01,0-.02.02-.03.03,0,0,0,0,0,0-.19.15-.36.31-.53.48,0,0,0,0,0,0-.03.02-.05.05-.08.07,0,0,0,0,0,0-.02.02-.04.04-.06.06,0,0,0,0,0,0-.09.06-.17.13-.24.21,0,0-.02.02-.03.02-.08.06-.16.12-.22.2,0,0,0,0,0,0-.09.06-.16.13-.23.21,0,0,0,0,0,0-.01.01-.02.02-.03.03,0,0,0,0,0,0-.05.02-.08.06-.11.1-.02.02-.04.04-.06.06-.02,0-.03.02-.03.05,0,0,0,0,0,0-.03,0-.05.03-.07.05,0,0-.01.01-.02.02-.01.01-.02.03-.03.04,0,0,0,0,0,0-.02.02-.04.04-.06.06,0,0,0,0,0,0-.01.01-.02.02-.03.03,0,0,0,0,0,0-.01.01-.02.02-.03.03,0,0,0,0,0,0-.02.02-.04.04-.06.06,0,0,0,0,0,0-.02.02-.04.04-.06.06h0s-.02.02-.03.03c-.2.19-.37.41-.49.67-.05.1-.07.19-.05.3.03.16.17.22.3.14.76-.5,1.53-1.01,2.29-1.51.04-.03.07-.07.13-.06.06.36.12.71.18,1.07,0,.02,0,.04,0,.06.03.21.07.42.1.64.01.07.04.15-.03.22,0,0,0,0,0,0-.03.02-.06.04-.07.08,0,0,0,0,0,0-.07.08-.15.16-.22.25-.03.02-.06.04-.07.08,0,0,0,0,0,0h0s-.05.02-.06.05c0,0,0,0,0,0-.08.06-.14.14-.2.22,0,0,0,0,0,0,0,.01-.02.02-.03.03,0,0,0,0,0,0-.01.02-.03.03-.04.05,0,0,0,0,0,0-.02,0-.03.01-.03.03,0,0,0,0,0,0,0,0,0,0,0,0-.11.12-.22.24-.37.39.24-.06.43-.12.62-.17ZM12.59,10.9c.04.08.08.15.14.21-.06-.06-.1-.13-.14-.21-.03,0-.05-.02-.05-.04,0,.02.02.03.05.04ZM10.51,10.87s0,.08,0,.12c-.03.07-.04.14-.05.22,0-.07.02-.15.05-.22,0-.04,0-.08,0-.12Z"/>
    <path class="cls-2" d="M19.5,10.1s0-.06,0-.09c.01-.06.04-.11.03-.17-.01-.26-.02-.52-.03-.78,0-.02,0-.04,0-.06,0-.11,0-.23-.05-.33,0,0,0-.02,0-.03,0-.07.04-.15-.02-.21,0-.14-.01-.27-.06-.39,0,0,0-.02,0-.02.02-.05.02-.09-.03-.12,0,0,0-.02,0-.03,0-.04.03-.09-.03-.12,0,0,0-.02,0-.02-.01-.18-.06-.34-.12-.51,0-.02,0-.05,0-.07-.11-.41-.25-.8-.41-1.18-.23-.54-.5-1.06-.84-1.54-.2-.32-.42-.63-.67-.9,0,0,0,0,0,0-.07-.12-.16-.21-.26-.3,0,0,0,0,0,0,0-.03-.02-.04-.04-.05-.37-.44-.81-.81-1.26-1.16-.19-.14-.37-.3-.58-.4,0,0,0,0,0,0,0,0,0,0,0,0,0,0,0,0,0,0-.02-.04-.07-.06-.1-.08C13.26.42,11.35-.07,9.3,0c-.13,0-.25,0-.37.05-.4-.01-.8.07-1.19.15-.71.15-1.4.37-2.06.69-.7.31-1.34.71-1.94,1.18-.47.37-.91.77-1.3,1.23,1.11.01,2.21.14,3.27.48.24.08.47.15.71.23,0,0,0,0,0,0,.14.1.32.11.46.21,1.04-.53,2.14-.76,3.3-.69.18.01.36.04.54.06,0,0,0-.02,0-.03,0,0,0,.02,0,.03.96.15,1.84.51,2.64,1.06.32.22.6.48.89.74h0s0,0,0,0c.01.05.06.08.1.11.01.02.02.04.05.04h0s0,0,0,0c.16.2.32.41.49.61.06.09.12.18.18.26.01.04.03.07.06.09,0,0,0,0,0,0,.01.03.03.05.04.08.96,1.67,1.12,3.42.53,5.25-.12.36-.3.69-.45,1.03,0,0,0,0,0,0,0,0,0,0,0,0h0s0,0,0,0c-.04.03-.06.08-.08.13-.3.46-.63.9-1.03,1.29-.28.27-.58.51-.9.73-.03.65-.16,1.28-.34,1.91-.3,1.09-.77,2.11-1.4,3.05-.38.57-.81,1.1-1.29,1.59-.41.42-.86.81-1.34,1.15-.02.01-.04.03-.05.05h0c-.1.03-.15.15-.27.12.37.22.78.33,1.21.32.28,0,.57-.03.82-.17h.01s.01,0,.01,0c.18-.06.36-.14.53-.25.35-.22.64-.51.91-.83.28-.33.58-.65.84-1,0,0,0,0,0,0,.13-.12.24-.26.35-.4,0-.01.02-.02.03-.03.07-.08.15-.16.22-.24.32-.37.65-.73.95-1.12,0,0,0,0,0,0,.14-.14.28-.28.38-.45,0,0,0,0,0,0,.33-.35.65-.72.95-1.1,0,0,0,0,0,0,0,0,0,0,0,0,.3-.33.59-.65.89-.98,0,0,0,0,0,0,.34-.29.62-.64.88-.99.11-.14.23-.28.31-.44,0,0,0,0,0,0,0-.01.02-.02.03-.03h0s-.02.02-.03.03c.02,0,.03-.02.03-.03.1-.11.18-.24.24-.38-.01,0-.03,0-.04-.01h0s0,0,0,0c0,0,0,0,0,0,0,0,0,0,0,0,.01,0,.03,0,.04.01,0,0,0,0,0,0,.1-.13.18-.27.24-.42,0,0,0,0,0,0,.05-.05.07-.11.09-.17,0,0,0,0,0,0,.02-.02.04-.05.05-.07.3-.6.54-1.23.71-1.88.14-.55.27-1.11.27-1.69.06-.16.02-.32.02-.48h0ZM12.74.54h0s.05.01.07.01c-.03,0-.05,0-.07-.01ZM15.39,6.76h0s0,0,0,0h0ZM16.01,5.42s-.03,0-.04.01c.01,0,.03,0,.04-.01,0-.01,0-.03,0-.04,0,0,0,.02,0,.04ZM8.82,22.95s.03.05.07.06c-.04-.01-.06-.03-.07-.06ZM11.02,22.63s0,0,.01,0c0,0,0,0-.01,0ZM11.15,22.72s-.07-.06-.12-.08c0,0,0,0,0,0,0,0,0,0,0,0,0,0,0,0,0,0,0,0,0,0,0,0,0,0,0,0,0,0,.09,0,.18.02.25-.02-.08.04-.17.03-.25.03.03.03.07.05.11.08ZM13.79,19.85s0,0,0,0c0,0,0,0,0,0,.01,0,.02-.01.03-.02-.01,0-.02.01-.03.02ZM16.73,4.71s0,0,0,0h0ZM16.82,4.62s-.01.05-.03.07c.02-.01.03-.04.03-.07,0,0,0,0,0,0h0s.05.03.07.05c-.02-.02-.04-.04-.07-.05ZM17.5,15.67h0s.04-.09.06-.13c-.02.04-.04.08-.06.13Z"/>
  </g>
  <path class="cls-1" d="M10.92,15.95c-1.5.26-2.92.04-4.25-.71-.02-.01-.04-.02-.07-.03h0s-.06-.05-.09-.06c-.17-.11-.33-.22-.5-.34-.04-.05-.09-.09-.15-.12-.51-.42-.95-.89-1.32-1.44-.58-.88-.93-1.83-1.01-2.88-.17-2.08.52-3.83,2.05-5.25.39-.36.83-.64,1.29-.9-.14-.1-.32-.11-.46-.21-.24-.08-.47-.15-.71-.23-1.06-.34-2.16-.47-3.27-.48-.6.66-1.08,1.39-1.46,2.19C.11,7.32-.18,9.22.11,11.22c.2,1.37.69,2.62,1.42,3.8.51.81,1.19,1.49,1.81,2.2.03.06.08.11.14.15.17.2.34.41.52.61,1.21,1.4,2.42,2.81,3.64,4.2.25.29.54.56.9.72.12.02.18-.1.27-.12.02-.02.03-.04.05-.05.48-.34.93-.73,1.34-1.15.48-.49.91-1.02,1.29-1.59.63-.94,1.1-1.96,1.4-3.05.17-.62.31-1.26.34-1.91-.71.46-1.47.78-2.3.93Z"/>
</svg>