<?xml version="1.0" encoding="UTF-8"?>
<svg id="Layer_1" data-name="Layer 1" xmlns="http://www.w3.org/2000/svg" version="1.1" viewBox="0 0 24 24">
  <defs>
    <style>
      .cls-1 {
        fill: #f1f2f2;
        stroke-width: 0px;
      }
    </style>
  </defs>
  <path class="cls-1" d="M20.5,13c-2.5,0-4.8,0-7.2,0-4,0-8.1,0-12.1,0,0,0,0,0-.1,0C.5,13,0,12.6,0,12c0-.6.4-1,1.1-1,2.4,0,4.8,0,7.2,0,3.9,0,7.9,0,11.8,0,.1,0,.2,0,.4,0-.2-.2-.3-.3-.4-.5-1.6-1.6-3.2-3.2-4.9-4.9-.4-.4-.5-.8-.3-1.2.3-.7,1.1-.8,1.7-.2.9.9,1.8,1.8,2.7,2.7,1.4,1.4,2.8,2.8,4.2,4.2.6.6.6,1.1,0,1.7-2.3,2.3-4.6,4.6-6.9,6.9-.4.4-.8.5-1.3.3-.4-.2-.6-.6-.5-1.1,0-.2.2-.5.4-.6,1.7-1.7,3.4-3.4,5.1-5.1,0,0,0-.1.2-.2Z"/>
</svg>