<?xml version="1.0" encoding="UTF-8"?>
<svg id="Layer_1" data-name="Layer 1" xmlns="http://www.w3.org/2000/svg" viewBox="0 0 32 32">
  <defs>
    <style>
      .cls-1 {
        fill: #fcfcfc;
        stroke-width: 0px;
      }
    </style>
  </defs>
  <path class="cls-1" d="M24.48,18.4h0c-.11-3.5,0-7.01-.04-10.52-.01-.87-.16-1.77-.45-2.59C22.74,1.82,19.08-.34,15.11.05c-4.48.44-7.79,4.04-7.58,8.21.08,1.65.01,3.31.01,4.97v5.3c0,3.09,1.52,5.21,4.21,6.58,1.94.99,4.03.96,6.09.71,3.98-.5,6.75-3.76,6.64-7.41ZM22.95,18.96h0c-.02,2.2-1.64,4.29-3.93,5.03-2.02.66-4.09.66-6.11-.02-2.43-.82-3.88-2.92-3.89-5.49,0-3.51-.01-7.01,0-10.52.01-3.46,2.88-6.32,6.48-6.4,0,.84.28,1.65-.49,2.27-.14.11-.18.4-.18.61-.02,1.16-.02,2.32,0,3.48,0,.21.05.51.18.61.64.49.52,1.16.52,1.81v5.14c0,.25-.05.52.03.74.08.21.31.37.47.55.13-.18.38-.35.39-.53.05-.77.03-1.54.03-2.32v-3.56c0-.65-.13-1.32.52-1.8.14-.1.18-.4.18-.61.02-1.16.02-2.32,0-3.48,0-.23-.06-.55-.22-.68-.78-.64-.4-1.44-.47-2.2,3.32-.06,6.44,2.82,6.48,6.03.05,3.78.04,7.57,0,11.35Z"/>
  <path class="cls-1" d="M18.92,27.41h0c-.95.97-1.89,1.92-2.99,3.03-1.02-1.05-1.96-2.02-2.89-2.99-.36-.38-.76-.62-1.21-.21-.51.46-.23.88.16,1.27,1.09,1.09,2.19,2.18,3.27,3.28.49.49.94.49,1.42,0,1.1-1.12,2.21-2.23,3.33-3.34.38-.38.68-.8.19-1.27-.48-.46-.91-.15-1.28.23Z"/>
</svg>